<svg width="158" height="202" viewBox="0 0 158 202" fill="none" xmlns="http://www.w3.org/2000/svg">
<path d="M112.936 51.4825V36.6526C112.936 18.0668 97.8689 3 79.2831 3V3C60.6973 3 45.6306 18.0668 45.6306 36.6526V51.4825" stroke="#5252E4" stroke-width="5.70382"/>
<path d="M157.996 191.226L154.574 133.047C152.862 111.563 149.098 66.7687 147.729 59.4678C146.36 52.1668 139.934 49.9614 136.892 49.7713C101.528 49.391 28.9754 48.8587 21.6745 49.7713C14.3736 50.6839 12.9287 56.6159 13.1188 59.4678L0 191.226C0.000238874 201.493 11.4076 202.063 13.1188 201.493C54.9468 202.634 132.899 201.493 147.729 201.493C155.526 201.493 157.996 198.641 157.996 191.226Z" fill="#5252E4"/>
<path d="M14.8299 155.862C39.8437 153.996 98.7104 145.689 134.067 127.396C169.424 109.103 69.3078 138.752 14.8299 155.862Z" fill="#FED660"/>
<path d="M31.7019 172.586C51.0856 171.539 105.408 167.493 133.065 153.353C160.722 139.213 74.133 159.756 31.7019 172.586Z" fill="#FED660"/>
<circle cx="45.5" cy="67.5" r="5.25" fill="#FED660" stroke="white" stroke-width="2.5"/>
<circle cx="112.5" cy="67.5" r="5.25" fill="#FED660" stroke="white" stroke-width="2.5"/>
</svg>
